<mxfile host="app.diagrams.net" modified="2023-08-18T18:37:11.465Z" agent="Mozilla/5.0 (Windows NT 10.0; Win64; x64) AppleWebKit/537.36 (KHTML, like Gecko) Chrome/115.0.0.0 Safari/537.36" version="21.6.2" etag="rh1_xJ_ViclC91REaehG" type="github">
  <diagram name="Page-1" id="A8I9sGpFq-5sU0uuRm7D">
    <mxGraphModel>
      <root>
        <mxCell id="0" />
        <mxCell id="1" parent="0" />
      </root>
    </mxGraphModel>
  </diagram>
</mxfile>
